<?xml version="1.0" encoding="UTF-8"?>
<svg width="201px" height="567px" viewBox="0 0 201 567" version="1.1" xmlns="http://www.w3.org/2000/svg" xmlns:xlink="http://www.w3.org/1999/xlink">
    <!-- Generator: Sketch 52.1 (67048) - http://www.bohemiancoding.com/sketch -->
    <title>Commercial</title>
    <desc>Created with Sketch.</desc>
    <g id="Page-1" stroke="none" stroke-width="1" fill="none" fill-rule="evenodd">
        <g id="Commercial">
            <rect id="Rectangle-path" fill="#737373" x="87.9222482" y="197.100788" width="24.9728321" height="11.9111387"></rect>
            <path d="M118.548526,205.328496 L114.277401,204.235883 C113.880221,204.13723 113.515262,203.937643 113.217898,203.656467 C112.730731,203.192088 112.452926,202.549852 112.448102,201.876832 L112.448102,186.44781 L88.3278394,186.44781 L88.3278394,201.876832 C88.3251807,202.548631 88.0504398,203.190688 87.5663212,203.656467 C87.2659643,203.937968 86.8982611,204.137497 86.4985401,204.235883 L82.2356934,205.328496 C81.2870244,205.584469 80.6305867,206.448382 80.6381606,207.430949 L80.6381606,238.818745 C80.6381606,240.039326 81.6276374,241.028803 82.848219,241.028803 L117.960832,241.028803 C118.547651,241.031013 119.111073,240.798878 119.526019,240.383932 C119.940966,239.968986 120.173101,239.405563 120.170891,238.818745 L120.170891,207.439226 C120.179465,206.459017 119.527018,205.595882 118.581635,205.336774 L118.548526,205.328496 Z" id="Shape" fill="#F06564"></path>
            <path d="M112.448102,199.352234 L112.448102,186.44781 L88.3278394,186.44781 L88.3278394,201.876832 C88.3251807,202.548631 88.0504398,203.190688 87.5663212,203.656467 C96.0715505,204.001144 104.552899,202.533978 112.448102,199.352234 Z" id="Shape" fill="#AA4849"></path>
            <circle id="Oval" fill="#AA4849" cx="65.126365" cy="142.387358" r="9.98251095"></circle>
            <circle id="Oval" fill="#AA4849" cx="143.604131" cy="148.71127" r="9.98251095"></circle>
            <path d="M104.046569,192.506847 C103.119504,192.506847 102.184161,192.506847 101.257095,192.415796 C80.1569265,191.027207 63.4186436,174.097021 62.2706715,152.982394 L64.5635036,117.770453 C65.9901693,95.8103182 84.2170902,78.7277857 106.223518,78.7260876 C107.142307,78.7260876 108.085927,78.7260876 109.012993,78.8171387 C123.406529,79.7275851 136.301675,88.0278368 143.090934,100.752175 C146.007313,106.144186 147.681534,112.119911 147.991139,118.242263 L145.681752,153.462482 C144.255294,175.419433 126.033253,192.500787 104.030015,192.506847 L104.046569,192.506847 Z" id="Shape" fill="#F06564"></path>
            <path d="M106.198686,81.159635 C107.026423,81.159635 107.953489,81.159635 108.822613,81.2506861 C128.641395,82.5425505 144.38785,98.4061717 145.532759,118.233985 L143.273036,153.296934 C141.929606,173.976231 124.769456,190.06455 104.046569,190.073299 C103.218832,190.073299 102.291766,190.073299 101.414365,189.982248 C81.6020891,188.679197 65.8641708,172.8206 64.7124964,152.998949 L66.972219,117.927723 C68.3078911,97.2460599 85.4739389,81.1558339 106.198686,81.159635 Z M106.198686,76.2925401 C82.8993889,76.2825542 63.5945915,94.3631447 62.080292,117.613182 L59.8288467,152.965839 C60.9768152,175.370188 78.7145268,193.367597 101.099825,194.841066 C102.084832,194.907285 103.069839,194.940394 104.046569,194.940394 C127.350717,194.962667 146.662607,176.875433 148.164964,153.619752 L150.441241,118.258818 C149.304677,95.8525883 131.565591,77.8501726 109.17854,76.3835912 C108.193533,76.3173723 107.208526,76.2925401 106.231796,76.2925401 L106.198686,76.2925401 Z" id="Shape" fill="#BE5050" fill-rule="nonzero"></path>
            <path d="M103.309883,162.029562 L103.00362,162.029562 C101.394698,161.873342 100.003395,160.841804 99.3864088,159.347693 C99.2266174,159.360022 99.0661125,159.360022 98.9063212,159.347693 C97.9363116,159.226552 97.1564433,158.49119 96.9785783,157.529962 C96.8007133,156.568735 97.2658122,155.603004 98.1282482,155.142788 C98.3497242,155.027264 98.6082083,155.005131 98.8461008,155.081318 C99.0839941,155.157506 99.2815278,155.325685 99.3946861,155.54838 C99.5105602,155.771089 99.53291,156.030791 99.4567913,156.270024 C99.3806717,156.509256 99.2123588,156.708294 98.9890949,156.823095 C98.905308,156.877494 98.8482388,156.964599 98.8318248,157.063139 C98.7967048,157.153662 98.7967048,157.254046 98.8318248,157.344569 C98.8969363,157.4191 98.9895742,157.463925 99.0884234,157.46873 C99.1874141,157.489718 99.2906073,157.465437 99.369854,157.402511 C99.6365907,157.164285 100.014348,157.095667 100.347825,157.224868 C100.681303,157.354068 100.914224,157.659284 100.950832,158.015036 C101.056979,159.16272 101.974258,160.067161 103.123323,160.157124 C104.272388,160.247086 105.319248,159.49642 105.602715,158.379241 C105.687886,158.029164 105.964969,157.758141 106.316842,157.680728 C106.668716,157.603317 107.03396,157.733028 107.25819,158.015036 C107.415438,158.140935 107.638971,158.140935 107.796219,158.015036 C107.858683,157.938679 107.885764,157.83938 107.870715,157.741883 C107.866722,157.642172 107.825353,157.547613 107.754832,157.477007 C107.460447,157.28753 107.29516,156.950643 107.32546,156.601865 C107.355761,156.253087 107.576669,155.949751 107.899319,155.81388 C108.22197,155.678008 108.593325,155.731937 108.864,155.953971 C109.372567,156.34631 109.694004,156.933355 109.750598,157.573173 C109.807191,158.212992 109.593789,158.847344 109.161985,159.322861 C108.71459,159.787847 108.083967,160.030394 107.440292,159.985051 C107.280828,159.98336 107.12225,159.961103 106.968482,159.918832 C106.189083,161.200679 104.809716,161.996467 103.309883,162.029562 Z" id="Shape" fill="#1D1F3C"></path>
            <path d="M93.1783796,170.977401 C93.1811599,172.1394 93.2780457,173.299265 93.4680876,174.44562 C93.4680876,174.44562 95.123562,177.756569 96.7790365,178.890569 C99.7249268,180.872459 103.493322,181.16765 106.711883,179.668642 C108.427337,178.855784 109.818436,177.488017 110.66019,175.786555 C111.127076,174.71351 111.407023,173.568526 111.487927,172.401109 C105.347843,172.877262 99.1710564,172.396969 93.1783796,170.977401 Z" id="Shape" fill="#AA4849"></path>
            <path d="M111.47965,172.401109 C105.342308,172.876937 99.1682983,172.396643 93.1783796,170.977401 C93.068841,172.214643 93.1610948,173.461463 93.4515328,174.669109 C99.1197284,175.714879 104.881841,176.164308 110.643635,176.010044 C111.118674,174.861162 111.40113,173.641846 111.47965,172.401109 Z" id="Shape" fill="#FFFFFF"></path>
            <path d="M108.433577,176.481854 C103.377634,176.488638 98.3318608,176.028672 93.3604818,175.10781 C93.1957447,175.080228 93.0609634,174.961493 93.0128321,174.801547 C92.7038982,173.537806 92.6060092,172.231687 92.7231241,170.936015 C92.7341769,170.806868 92.8007468,170.688879 92.9055748,170.612641 C93.0104019,170.536403 93.1431618,170.509424 93.2694307,170.538701 C99.2146996,171.955982 105.34523,172.433577 111.438263,171.954131 C111.566479,171.94457 111.692761,171.98967 111.785912,172.078292 C111.880445,172.168128 111.92915,172.295979 111.91835,172.425942 C111.836726,173.72398 111.540231,174.999472 111.040949,176.200423 C110.969648,176.352142 110.819449,176.45121 110.651912,176.457022 L108.433577,176.481854 Z M93.7991825,174.280073 C99.2595771,175.269128 104.806214,175.701765 110.353927,175.571343 C110.664806,174.703678 110.878563,173.804232 110.991285,172.889474 C105.161491,173.290901 99.3043643,172.830698 93.6088029,171.523708 C93.5636341,172.447146 93.6303382,173.372656 93.8074599,174.280073 L93.7991825,174.280073 Z" id="Shape" fill="#141620" fill-rule="nonzero"></path>
            <path d="M102.449036,181.514496 C102.151051,181.514496 101.861343,181.514496 101.571635,181.514496 L101.513693,181.514496 C99.6160909,181.36404 97.7916977,180.715938 96.2244526,179.635533 C94.4929579,178.435538 93.2181664,176.685251 92.6072409,174.669109 C92.2849332,173.424489 92.1813047,172.133335 92.3009781,170.853241 C92.3271901,170.592643 92.4663658,170.356648 92.6817372,170.207606 C92.893114,170.058167 93.1596942,170.009698 93.410146,170.075168 C96.3431161,170.812659 99.3339269,171.297281 102.349708,171.523708 C105.362733,171.780396 108.392129,171.780396 111.405153,171.523708 C111.667174,171.492188 111.928521,171.587503 112.10873,171.780307 C112.295786,171.96131 112.392819,172.216023 112.373606,172.475606 C112.290322,173.757348 111.98504,175.014884 111.471372,176.192146 C110.535158,178.072 108.99659,179.584342 107.10092,180.488102 C105.646449,181.173484 104.056873,181.524208 102.449036,181.514496 Z M101.679241,179.693474 C103.273247,179.837032 104.876621,179.551225 106.322847,178.865737 C107.854621,178.139923 109.099009,176.921762 109.857285,175.405796 C110.141882,174.760308 110.344865,174.081846 110.461533,173.386117 C107.704117,173.561725 104.937513,173.534059 102.184161,173.303343 C99.4372095,173.087464 96.709548,172.672506 94.022603,172.061737 C94.0205815,172.766089 94.1124421,173.467572 94.2958248,174.147635 C94.7946077,175.769959 95.8272504,177.175987 97.2260146,178.137328 C98.5364865,179.037821 100.060963,179.577383 101.646131,179.701752 L101.679241,179.693474 Z" id="Shape" fill="#141620" fill-rule="nonzero"></path>
            <path d="M149.307241,123.44873 C149.241022,110.867124 130.393445,114.227737 123.067971,106.893985 C121.776701,106.157299 120.485431,105.379226 119.210715,104.543212 C117.936,103.707197 116.727504,102.987066 115.568672,102.167606 C110.75979,98.867492 106.253043,95.1474166 102.101387,91.0510949 C101.877898,90.8441606 101.71235,90.6455036 101.488861,90.4468467 C100.147927,89.1059124 98.8732117,87.7649781 97.6067737,86.3081606 C96.5555474,85.116219 95.5125985,83.8249489 94.5275912,82.6081752 L94.4696496,82.5419562 C94.6100148,82.3827112 94.727066,82.2043487 94.8172993,82.0122044 C94.5843152,82.0485851 94.3564731,82.1124922 94.1385547,82.2025839 C92.9631679,82.5419562 91.8457226,82.9475474 90.7282774,83.3531387 C90.5378978,83.4607445 90.297854,83.5021314 90.1074745,83.6097372 L88.9817518,84.0732701 C88.7189304,84.1721201 88.4666046,84.2968965 88.2285109,84.4457518 L88.1705693,84.4457518 C88.0330334,84.4968282 87.9045048,84.5694745 87.7898102,84.6609635 C87.7447614,84.6662536 87.7019194,84.6833902 87.6656496,84.7106277 L87.2931679,84.8678978 C87.1690073,84.917562 87.0365693,85.0334453 86.9124088,85.0831095 C86.736633,85.1946454 86.5475289,85.2836355 86.3495474,85.3479854 C86.2833285,85.405927 86.2253869,85.3976496 86.1012263,85.4473139 C86.0676574,85.4470506 86.0392023,85.471949 86.0350073,85.5052555 C85.9734311,85.5777346 85.8816773,85.6174942 85.7866861,85.6128613 C85.6625255,85.6625255 85.5300876,85.7784088 85.405927,85.828073 C85.2834045,86.006481 85.1290795,86.160806 84.9506715,86.2833285 C84.6411384,86.4411457 84.3449376,86.6238488 84.0649927,86.829635 C83.9371578,86.8650415 83.8240252,86.9404633 83.7421752,87.0448467 C83.427635,87.2103942 83.1710365,87.4338832 82.8564964,87.5911533 C82.7902774,87.6490949 82.7902774,87.6490949 82.7323358,87.6490949 C83.4607445,89.0645255 84.1891533,90.4799562 84.983781,91.8374453 C85.5631971,92.8721168 86.1508905,93.8405693 86.7965255,94.8172993 C87.8394745,94.5938102 88.940365,94.3703212 89.9833139,94.0888905 C92.524905,97.6302243 95.2896334,101.005958 98.2606861,104.195562 C99.2622482,105.255066 100.272088,106.28146 101.306759,107.291299 L101.265372,107.291299 C100.255533,106.306292 99.2622482,105.296453 98.3186277,104.261781 C97.1929051,104.791533 96.0009635,105.370949 94.8172993,105.834482 L95.0656204,106.12419 C94.9536392,106.035564 94.851018,105.935716 94.7593577,105.826204 C92.0002339,107.001591 89.2107594,108.066613 86.3909343,109.02127 C84.9755036,109.49308 83.5517956,109.940058 82.1198102,110.34565 C76.3256496,111.852131 69.5216496,111.297547 64.3896788,114.310511 C62.3286131,115.610058 62.4610511,120.021898 62.1878978,123.41562 C71.9055328,124.243358 80.9195912,121.503547 89.4121752,118.142934 C90.9434891,117.406248 92.4499708,116.619898 93.9150657,115.816993 C96.7427742,114.263414 99.4813461,112.552843 102.117942,110.693299 C103.673833,109.582134 105.788358,109.681359 107.233358,110.933343 C108.474964,111.819022 109.716569,112.704701 110.991285,113.582102 C122.513387,120.948964 135.152934,127.835737 148.636774,130.393445 C148.794044,128.448263 148.984423,126.022993 149.323796,124.284745 C149.35363,124.006493 149.348067,123.725582 149.307241,123.44873 Z" id="Shape" fill="#BE5050"></path>
            <path d="M96.1416788,127.330818 C95.9730514,127.327797 95.807917,127.282243 95.6615912,127.19838 C90.823511,124.405707 84.8773795,124.346058 79.9842482,127.041109 C79.6885261,127.206714 79.3269189,127.201973 79.0356403,127.028672 C78.7443617,126.855372 78.567664,126.53984 78.5721074,126.200935 C78.5765509,125.86203 78.7614604,125.55124 79.0571825,125.385635 C84.5388971,122.365267 91.2009013,122.431196 96.6217664,125.55946 C96.9821582,125.780586 97.1534924,126.212935 97.0424026,126.620904 C96.9313128,127.028871 96.5644282,127.314663 96.1416788,127.32254 L96.1416788,127.330818 Z" id="Shape" fill="#1D1F3C"></path>
            <path d="M131.775766,131.113577 C131.515254,131.114258 131.266261,131.006261 131.088745,130.815591 C126.883839,126.320978 118.945839,125.71673 114.103577,129.524321 C113.693522,129.824971 113.118987,129.74666 112.804354,129.347234 C112.489722,128.947808 112.548145,128.37091 112.936467,128.042672 C118.90942,123.606522 127.235535,124.238037 132.471066,129.524321 C132.824999,129.90617 132.802774,130.502531 132.421401,130.856978 C132.247587,131.022968 132.016103,131.114967 131.775766,131.113577 Z" id="Shape" fill="#1D1F3C"></path>
            <path d="M91.1752555,140.649109 C91.0100143,140.648299 90.847681,140.60558 90.7034453,140.524949 C88.5334353,139.268359 85.8638097,139.240093 83.6676788,140.450453 C83.3719565,140.616057 83.0103495,140.611316 82.7190709,140.438015 C82.4277923,140.264715 82.2510945,139.949183 82.255538,139.610278 C82.2599815,139.271373 82.444891,138.960583 82.7406131,138.794978 C85.5248182,137.268951 88.9028883,137.303454 91.6553431,138.886029 C91.873384,139.010585 92.0321845,139.217582 92.0960138,139.460444 C92.1598431,139.703305 92.1233391,139.961633 91.9947153,140.177299 C91.8245102,140.468712 91.5127322,140.64822 91.1752555,140.649109 Z" id="Shape" fill="#1D1F3C"></path>
            <path d="M126.461693,144.663635 C126.17961,144.660383 125.913228,144.533247 125.733285,144.315985 C123.837291,142.192758 120.679824,141.761237 118.28365,143.297869 C118.007793,143.509559 117.637869,143.552385 117.320942,143.409322 C117.004016,143.266258 116.79145,142.96049 116.767752,142.613579 C116.744054,142.266667 116.913064,141.934833 117.207591,141.75 C120.400143,139.683737 124.624043,140.264523 127.140438,143.115766 C127.470145,143.5163 127.414685,144.107872 127.016277,144.440146 C126.858758,144.569835 126.665121,144.647867 126.461693,144.663635 Z" id="Shape" fill="#1D1F3C"></path>
            <path d="M131.89165,159.306307 C132.109025,159.330895 132.326222,159.258697 132.485617,159.108865 C132.645013,158.959033 132.730496,158.746713 132.719387,158.528234 C132.43666,154.05578 128.905749,150.473182 124.437875,150.125496 C119.970002,149.777809 115.927365,152.77104 114.956146,157.145912 C114.912762,157.357473 114.962271,157.577478 115.092102,157.750058 C115.221932,157.922638 115.419594,158.03119 115.634891,158.048146 L131.89165,159.306307 Z" id="Shape" fill="#F3837B"></path>
            <path d="M91.3490803,156.036745 C91.5664557,156.061333 91.7836523,155.989135 91.943048,155.839303 C92.1024437,155.689471 92.1879266,155.477151 92.1768175,155.258672 C91.8940906,150.786218 88.3631797,147.20362 83.8953057,146.855934 C79.4274324,146.508247 75.3847951,149.501478 74.4135766,153.87635 C74.3700509,154.087024 74.4197218,154.30623 74.5498091,154.477564 C74.6798964,154.648899 74.8776985,154.755634 75.0923212,154.770307 L91.3490803,156.036745 Z" id="Shape" fill="#F3837B"></path>
            <path d="M77.8072993,136.775299 C77.6864909,136.775674 77.5673267,136.747302 77.4596496,136.692526 L69.5878686,132.553839 C69.3572054,132.431115 69.2095367,132.194655 69.2004878,131.933532 C69.1914389,131.67241 69.3223845,131.426296 69.5439987,131.287897 C69.7656129,131.1495 70.0442273,131.139845 70.2748905,131.262569 L78.1466715,135.401255 C78.5010362,135.59467 78.6368525,136.035155 78.4529343,136.39454 C78.3231993,136.629642 78.0758206,136.775531 77.8072993,136.775299 Z" id="Shape" fill="#BE5050"></path>
            <path d="M69.5713139,143.322701 C69.2512532,143.32516 68.9679793,143.116078 68.8760146,142.809504 C68.8165443,142.624012 68.8338469,142.422429 68.9240574,142.249784 C69.0142677,142.077141 69.1698691,141.947822 69.3561022,141.890715 L77.8569635,139.266788 C78.2275622,139.19005 78.5960162,139.406608 78.7092664,139.767727 C78.8225166,140.128845 78.6437147,140.517027 78.2956642,140.665664 L69.7865255,143.289591 C69.7171801,143.312732 69.6444082,143.323928 69.5713139,143.322701 Z" id="Shape" fill="#BE5050"></path>
            <path d="M133.373299,141.261635 C133.010516,141.269186 132.697499,141.008569 132.639196,140.650421 C132.580892,140.292274 132.795086,139.945832 133.141533,139.837927 L141.543066,136.990511 C141.911932,136.90785 142.283501,137.117791 142.403041,137.476408 C142.522579,137.835023 142.351288,138.225919 142.006599,138.381109 L133.571956,141.220248 C133.50788,141.242845 133.441068,141.256764 133.373299,141.261635 Z" id="Shape" fill="#BE5050"></path>
            <path d="M140.417343,149.034088 C140.305051,149.038146 140.193684,149.012446 140.094526,148.959591 L132.115139,145.003007 C131.881518,144.886197 131.727961,144.653625 131.712312,144.392899 C131.696662,144.132172 131.821298,143.882903 132.039268,143.738986 C132.257239,143.59507 132.535431,143.578372 132.769051,143.695182 L140.740161,147.651766 C141.044664,147.801195 141.205724,148.141027 141.128587,148.471331 C141.05145,148.801636 140.756534,149.034982 140.417343,149.034088 Z" id="Shape" fill="#BE5050"></path>
            <path d="M87.3593869,151.351752 C87.0531241,151.351752 86.7468613,151.351752 86.4323212,151.351752 C80.0915459,150.833299 75.3688342,145.277167 75.8786715,138.935693 C76.3677502,132.713526 81.7253107,128.013978 87.9581604,128.339802 C94.1910093,128.665627 99.0293668,133.898168 98.867021,140.137416 C98.7046753,146.376665 93.6007466,151.350508 87.3593869,151.351752 Z M87.3593869,130.06235 C82.2613948,130.06311 78.0183794,133.978354 77.6086423,139.059854 C77.2899509,143.001102 79.3769463,146.746202 82.8963577,148.548628 C86.4157689,150.351054 90.674414,149.855799 93.6862717,147.293826 C96.6981293,144.731852 97.8699851,140.607766 96.6553444,136.844837 C95.4407029,133.081906 92.0788002,130.421279 88.1374599,130.103737 C87.8725839,130.070628 87.607708,130.06235 87.3428321,130.06235 L87.3593869,130.06235 Z" id="Shape" fill="#FFDFA2" fill-rule="nonzero"></path>
            <path d="M122.248511,154.166058 C121.933463,154.168793 121.61849,154.154978 121.304891,154.124672 C118.258024,153.879952 115.433514,152.43372 113.453861,150.104717 C111.474207,147.775713 110.501905,144.755106 110.751241,141.708613 C111.24016,135.488584 116.594365,130.789719 122.825227,131.112451 C129.056089,131.435182 133.896185,136.662067 133.739871,142.899323 C133.583557,149.136579 128.487717,154.114456 122.248511,154.124672 L122.248511,154.166058 Z M122.248511,132.876657 C117.162995,132.889975 112.93562,136.797149 112.522599,141.865883 C112.178317,145.381348 113.757298,148.809109 116.652866,150.832153 C119.548433,152.855197 123.310154,153.15882 126.4927,151.626363 C129.675245,150.093905 131.783539,146.963757 132.007533,143.438584 C132.436312,138.059748 128.429392,133.349209 123.051416,132.909766 C122.745153,132.884934 122.505109,132.876657 122.215401,132.876657 L122.248511,132.876657 Z" id="Shape" fill="#FFDFA2" fill-rule="nonzero"></path>
            <path d="M111.744526,141.410628 C107.97582,138.233369 102.604966,137.80104 98.3765693,140.334569 L97.4826131,138.844642 C102.345721,135.921209 108.530818,136.420544 112.861971,140.086248 L111.744526,141.410628 Z" id="Shape" fill="#FFDFA2"></path>
            <path d="M94.7924672,76.979562 L95.6202044,76.7643504 L95.8023066,76.7229635 L95.9926861,76.7229635 L96.6383212,76.5739708 L96.812146,76.5739708 C97.0935766,76.5077518 97.3750073,76.4498102 97.6398832,76.400146 L97.7888759,76.400146 L98.6745547,76.2428759 L98.7738832,76.2428759 L99.7175036,76.0938832 C102.137657,75.7474535 104.582208,75.600725 107.026423,75.6551825 C107.854161,75.6551825 108.731562,75.7131241 109.592409,75.7793431 L110.825737,75.8952263 L110.966453,75.8952263 L111.231328,75.8952263 L112.059066,76.0028321 L112.522599,76.0690511 L113.284117,76.1849343 L113.524161,76.2263212 L113.755927,76.267708 L114.517445,76.4084234 L114.740934,76.4498102 L114.964423,76.4498102 L115.792161,76.623635 L116.17292,76.7146861 L117.257255,76.979562 L117.340029,76.979562 L118.507139,77.3023796 L118.556803,77.3023796 L118.813401,77.3768759 L119.641139,77.6417518 L120.030175,77.7741898 L120.791693,78.0307883 L121.189007,78.1715036 L121.486993,78.2873869 L121.933971,78.4529343 L122.165737,78.535708 L122.31473,78.601927 C122.579606,78.7012555 122.855518,78.8088613 123.142467,78.9247445 L123.44873,79.0489051 L124.483401,79.5041606 C124.855883,79.669708 125.228365,79.8518102 125.592569,80.025635 L125.741562,80.1001314 L125.882277,80.1746277 C124.641387,77.4013865 122.726347,74.9826888 120.311606,73.1388613 C114.76337,69.0705805 107.430335,68.3744666 101.215708,71.3261168 C98.5826287,72.6420171 96.3097923,74.5796105 94.5938102,76.9712847 L94.7428029,76.9298978 L94.7924672,76.979562 Z" id="Shape" fill="#929497"></path>
            <path d="M101.157766,107.531343 C98.8814891,105.337839 96.7045401,103.045007 94.6517518,100.652847 C86.1749412,104.14121 77.3392252,106.683941 68.3048759,108.23492 C66.5749051,108.541182 64.8449343,108.814336 63.0984088,109.062657 C62.8997518,109.890394 62.725927,110.718131 62.5686569,111.545869 C62.5686569,111.653474 62.5686569,111.752803 62.5107153,111.852131 C62.3617226,112.679869 62.2292847,113.507606 62.1216788,114.335343 L62.1216788,114.418117 L62.1216788,114.550555 C62.0554599,115.113416 61.9975182,115.684555 61.947854,116.255693 L61.6747007,119.616307 C61.6747007,119.657693 61.6747007,119.69908 61.6747007,119.73219 C63.3301752,119.781854 64.8945985,119.73219 66.5004088,119.682526 C78.9803394,119.045852 91.012615,114.827228 101.157766,107.531343 Z" id="Shape" fill="#A6A8AB"></path>
            <path d="M79.2723942,90.8193285 C81.6893869,90.5213431 84.0898248,90.1405839 86.4654307,89.6604964 C85.8363504,88.6754891 85.2238248,87.6656496 84.627854,86.6558102 C83.811153,85.2762479 83.0303212,83.8746131 82.2853577,82.4509051 C81.9128759,82.6909489 81.5321168,82.9309927 81.159635,83.1875912 L81.0106423,83.2869197 C77.6815613,85.5728857 74.6795954,88.3019453 72.087635,91.3987445 C74.4963504,91.3159708 76.8802336,91.1090365 79.2723942,90.8193285 Z" id="Shape" fill="#BBBDBF"></path>
            <path d="M68.3048759,108.23492 C77.3392252,106.683941 86.1749412,104.14121 94.6517518,100.652847 C91.6655383,97.187673 88.9298469,93.5142679 86.4654307,89.6604964 C84.0898248,90.1405839 81.6893869,90.4882336 79.2723942,90.8193285 C76.8554015,91.1504234 74.4715182,91.3159708 72.0628029,91.431854 C68.3380641,95.877677 65.5254158,101.013572 63.7854307,106.546336 L63.7854307,106.604277 C63.5371095,107.432015 63.3136204,108.210088 63.1066861,109.029547 C64.8449343,108.814336 66.5749051,108.541182 68.3048759,108.23492 Z" id="Shape" fill="#BBBDBF"></path>
            <path d="M101.232263,107.473401 L102.225547,106.736715 L102.432482,106.579445 C102.838073,106.273182 103.260219,105.96692 103.624423,105.644102 L103.66581,105.644102 L104.435606,105.006745 C102.277971,103.125022 100.208627,101.157766 98.2275766,99.1049781 C97.0439124,99.6430073 95.8519708,100.172759 94.6517518,100.677679 C96.7045401,103.069839 98.8814891,105.362672 101.157766,107.556175 L101.232263,107.473401 Z" id="Shape" fill="#808184"></path>
            <path d="M87.0945109,85.1741606 C86.2171095,83.8415036 85.3645401,82.4840146 84.5533577,81.0934161 C83.8166715,81.5072847 83.0882628,81.9211533 82.3681314,82.3929635 L82.2853577,82.4509051 C83.0303212,83.8746131 83.811153,85.2762479 84.627854,86.6558102 C85.2238248,87.6656496 85.8363504,88.6754891 86.4654307,89.6604964 C87.5580438,89.4452847 88.6423796,89.2052409 89.718438,88.9569197 C88.8189632,87.7153139 87.9443214,86.4543944 87.0945109,85.1741606 Z" id="Shape" fill="#929497"></path>
            <path d="M89.718438,88.9569197 C88.6423796,89.2052409 87.5580438,89.4452847 86.4654307,89.6604964 C88.9298469,93.5142679 91.6655383,97.187673 94.6517518,100.652847 C95.8519708,100.147927 97.0439124,99.6181752 98.2275766,99.080146 C95.1649009,95.9026159 92.3219571,92.5203972 89.718438,88.9569197 Z" id="Shape" fill="#929497"></path>
            <path d="M84.5533577,81.1182482 C85.3810949,82.5088467 86.2088321,83.8663358 87.0945109,85.1989927 C87.9801898,86.5316496 88.8162044,87.740146 89.718438,88.9817518 C92.3219571,92.5452293 95.1649009,95.927448 98.2275766,99.1049781 C100.208627,101.157766 102.277971,103.125022 104.435606,105.006745 C116.122629,115.248441 130.061396,122.587917 145.118891,126.428584 C146.691591,126.820379 148.272569,127.173547 149.861825,127.488088 L149.861825,127.446701 C149.861825,127.214934 149.861825,126.983168 149.911489,126.734847 L150.176365,123.365956 C150.176365,123.084526 150.176365,122.811372 150.234307,122.538219 C150.292248,122.265066 150.234307,122.198847 150.234307,122.025022 C150.234307,121.892584 150.234307,121.760146 150.234307,121.635985 C150.234307,121.462161 150.234307,121.288336 150.234307,121.114511 C150.234307,120.940686 150.234307,120.766861 150.234307,120.601314 L150.234307,120.245387 C150.234307,119.69908 150.234307,119.161051 150.234307,118.589912 C150.234307,118.200876 150.234307,117.820117 150.234307,117.43108 C150.234307,117.373139 150.234307,117.30692 150.234307,117.248978 C150.234307,116.826832 150.176365,116.421241 150.143255,115.98254 C150.138808,115.94404 150.138808,115.905157 150.143255,115.866657 C150.060482,114.947869 149.952876,114.02908 149.812161,113.126847 C149.812161,113.126847 149.812161,113.044073 149.812161,113.010964 C149.812161,113.010964 149.812161,112.961299 149.812161,112.944745 L149.688,112.241168 C149.688,112.025956 149.613504,111.802467 149.572117,111.578978 C147.825591,111.206496 146.09562,110.751241 144.373927,110.304263 C128.466323,105.870729 113.916589,97.5374929 102.043445,86.0598394 L101.406088,85.4473139 C100.048599,84.1146569 98.7324964,82.7323358 97.4495036,81.3086277 C96.3458543,80.1111679 95.2891095,78.8833577 94.2792701,77.6251971 L93.989562,77.2775474 C92.8058978,77.6169197 91.6470657,77.9976788 90.5047883,78.4281022 L89.8508759,78.6847007 C89.4701168,78.8419708 89.0893577,78.9826861 88.7168759,79.1482336 L87.9553577,79.4876058 L87.8891387,79.4876058 L87.5001022,79.6779854 L87.3428321,79.7442044 L86.9537956,79.9263066 L86.539927,80.1249635 L85.9687883,80.4146715 L85.7370219,80.5305547 L85.6625255,80.5305547 L85.4390365,80.646438 L85.3231533,80.7126569 L85.0168905,80.8782044 L84.5864672,81.1099708 L84.5533577,81.1182482 Z" id="Shape" fill="#A6A8AB"></path>
            <path d="M134.523854,92.4499708 C127.337459,89.4818301 120.525256,85.6784429 114.227737,81.1182482 C113.582102,80.6547153 112.944745,80.1829051 112.307387,79.7028175 C110.524993,78.3508467 108.789504,76.9492117 107.10092,75.4979124 C104.656704,75.4434549 102.212153,75.5901834 99.792,75.9366131 C98.0614456,76.181687 96.3475661,76.5327559 94.6600292,76.9878394 L93.9978394,77.1616642 L94.2875474,77.5093139 C95.3139416,78.7674745 96.3706864,79.9952846 97.457781,81.1927445 C98.7407737,82.5998978 100.056876,83.982219 101.414365,85.3314307 L102.051723,85.9439562 C113.924867,97.4216097 128.474601,105.754846 144.382204,110.18838 C146.103898,110.66019 147.833869,111.090613 149.580394,111.463095 C149.584292,111.43287 149.584292,111.402269 149.580394,111.372044 C149.539007,111.140277 149.481066,110.900234 149.431401,110.66019 C149.298964,110.022832 149.149971,109.393752 148.992701,108.764672 C148.951314,108.607401 148.918204,108.441854 148.876818,108.284584 C148.835431,108.127314 148.818876,108.102482 148.794044,108.011431 C148.669883,107.564453 148.545723,107.117474 148.405007,106.670496 C148.264292,106.223518 148.073912,105.635825 147.900088,105.122628 L147.527606,104.112788 C147.395168,103.781693 147.271007,103.450599 147.130292,103.119504 C146.989577,102.788409 146.857139,102.465591 146.716423,102.142774 C146.575708,101.819956 146.426715,101.505416 146.286,101.190876 C146.186672,100.967387 146.079066,100.752175 145.97146,100.536964 L145.839022,100.255533 L145.706584,99.9823796 C145.590701,99.7671679 145.483095,99.5519562 145.375489,99.3367445 C145.218219,99.0304818 145.052672,98.7324964 144.887124,98.4345109 C144.721577,98.1365255 144.547752,97.8385401 144.373927,97.5405547 L143.82762,96.6465985 C143.645518,96.3486131 143.455139,96.0506277 143.264759,95.7609197 C140.193854,94.6351971 137.329883,93.6005255 134.523854,92.4499708 Z" id="Shape" fill="#BBBDBF"></path>
            <path d="M125.816058,80.1332409 L125.667066,80.0587445 C125.302861,79.8849197 124.93038,79.7028175 124.557898,79.5372701 L123.523226,79.0820146 L123.216964,78.957854 C122.952088,78.8419708 122.676175,78.734365 122.389226,78.6350365 L122.240234,78.5688175 L122.008467,78.4860438 L121.263504,78.2046131 L120.86619,78.0638978 L120.104672,77.8072993 L119.715635,77.6748613 L119.57492,77.6334745 L118.871343,77.4099854 L118.614745,77.3354891 L118.56508,77.3354891 L117.397971,77.0126715 L117.315197,77.0126715 L116.230861,76.7477956 L115.850102,76.6567445 L115.022365,76.4829197 L114.575387,76.400146 L113.813869,76.2594307 L113.582102,76.2180438 L113.342058,76.1766569 L112.58054,76.0607737 L112.117007,75.9945547 L111.28927,75.8869489 L111.024394,75.8869489 L110.883679,75.8869489 L109.65035,75.7710657 C108.822613,75.7048467 107.936934,75.6634599 107.084365,75.6469051 C108.772949,77.1037226 110.508438,78.5053576 112.290832,79.8518102 C112.92819,80.3318978 113.565547,80.803708 114.211182,81.2672409 C120.523322,85.8187303 127.349499,89.6110506 134.548686,92.565854 C137.354715,93.7164088 140.218686,94.7510803 143.124044,95.6284818 C143.024715,95.4794891 142.917109,95.3387737 142.826058,95.189781 C142.238365,94.3620438 141.625839,93.476365 140.988482,92.6486277 L140.905708,92.5575766 L140.624277,92.209927 L140.243518,91.7381168 L140.119358,91.5974015 C139.904146,91.3325255 139.680657,91.075927 139.457168,90.8193285 C139.414239,90.7791393 139.37542,90.7347743 139.341285,90.6868905 L139.126073,90.4551241 L138.596321,89.8674307 L138.596321,89.8177664 C137.768584,88.9293287 136.907737,88.0767594 136.013781,87.2600584 L135.939285,87.185562 L135.88962,87.1441752 L135.13638,86.473708 L135.028774,86.3826569 L134.954277,86.316438 L134.28381,85.7452993 L134.225869,85.695635 L134.027212,85.538365 L133.605066,85.1989927 L133.249139,84.917562 L133.166365,84.8596204 C133.148349,84.8361094 133.125841,84.8164134 133.100146,84.8016788 C132.553839,84.3795328 131.990978,83.9739416 131.444672,83.5849051 C131.022526,83.2951971 130.616934,83.0054891 130.169956,82.7571679 L130.06235,82.6909489 L129.963022,82.6247299 L129.176672,82.1280876 L128.903518,81.9625401 L128.150277,81.5238394 L127.98473,81.4245109 L127.852292,81.358292 L127.082496,80.9278686 L126.809343,80.7871533 L126.039547,80.3898394 L125.816058,80.1332409 Z" id="Shape" fill="#BBBDBF"></path>
            <path d="M168.46108,240.424555 L147.10546,210.626015 C146.332906,209.550029 145.218172,208.767964 143.943504,208.407679 L134.780453,205.808584 C128.089617,203.916576 121.254189,202.579391 114.34362,201.810613 C113.515883,201.719562 111.79419,207.83654 111.79419,207.83654 L100.429358,228.455474 L89.0562482,207.861372 C89.0562482,207.861372 87.5414891,201.719562 86.7799708,201.802336 C79.7818635,202.566917 72.8599401,203.915307 66.0865401,205.833416 L56.9152117,208.424234 C55.6385292,208.780271 54.5224998,209.563244 53.7532555,210.642569 L32.3893577,240.441109 C31.9856056,241.002309 32.0713845,241.777894 32.5880146,242.237299 L32.8528905,242.469066 L32.9604964,242.560117 L33.1591533,242.725664 L33.308146,242.858102 L33.4902482,243.007095 C33.5481898,243.065036 33.6226861,243.114701 33.6889051,243.172642 L33.8378978,243.30508 L34.086219,243.512015 L34.1855474,243.594788 C38.3242336,247.05473 47.205854,254.057387 50.2353723,256.449547 C50.4905719,256.660343 50.828586,256.74196 51.1518563,256.67084 C51.4751266,256.59972 51.7476782,256.38378 51.8908467,256.085343 L57.6850073,244.712234 C59.0673285,242.493898 61.2691095,243.470628 61.3436058,246.127664 C61.7988613,263.286657 55.2928467,306.916686 52.5613139,324.340555 L148.36362,324.340555 C145.632088,306.916686 139.117796,263.286657 139.581328,246.127664 C139.647547,243.470628 141.857606,242.493898 143.239927,244.712234 L148.992701,256.068788 C149.138252,256.364796 149.410628,256.578456 149.732781,256.64933 C150.054934,256.720203 150.391832,256.640583 150.648175,256.432993 C153.677693,254.040832 162.526204,247.038175 166.689723,243.578234 L166.789051,243.49546 L167.029095,243.296803 L167.194642,243.156088 L167.393299,242.99054 L167.567124,242.841547 L167.724394,242.709109 L167.914774,242.543562 L168.02238,242.452511 L168.287255,242.220745 C168.79967,241.756399 168.874947,240.97854 168.46108,240.424555 Z" id="Shape" fill="#E6E6E6"></path>
            <path d="M56.8903796,215.542774 L87.185562,202.16654 C87.0365693,201.926496 86.9041314,201.785781 86.7799708,201.794058 C79.7818635,202.558639 72.8599401,203.90703 66.0865401,205.825139 L56.9152117,208.424234 C55.6385292,208.780271 54.5224998,209.563244 53.7532555,210.642569 L32.4390219,240.358336 L32.3893577,240.490774 C31.9900155,241.029859 32.0768695,241.786213 32.5880146,242.220745 L32.8528905,242.452511 L32.9604964,242.543562 L33.1591533,242.709109 L33.308146,242.841547 L33.4902482,242.99054 C33.5481898,243.048482 33.6226861,243.098146 33.6889051,243.156088 L33.8378978,243.288526 L34.086219,243.49546 L34.1855474,243.578234 L35.3857664,244.563241 L53.7284234,218.994438 C54.498219,217.91838 55.6156642,215.906978 56.8903796,215.542774 Z" id="Shape" fill="#EDEDED"></path>
            <path d="M143.968336,215.542774 L113.673153,202.16654 C113.822146,201.926496 113.954584,201.785781 114.078745,201.794058 C121.076851,202.558639 127.998775,203.90703 134.772175,205.825139 L143.926949,208.424234 C145.203632,208.780271 146.319661,209.563244 147.088905,210.642569 L168.403139,240.358336 L168.452803,240.490774 C168.852145,241.029859 168.765291,241.786213 168.254146,242.220745 L167.98927,242.452511 L167.881664,242.543562 L167.683007,242.709109 L167.534015,242.841547 L167.351912,242.99054 L167.153255,243.156088 L167.004263,243.288526 L166.755942,243.49546 L166.656613,243.578234 L165.456394,244.563241 L147.113737,218.994438 C146.360496,217.91838 145.243051,215.906978 143.968336,215.542774 Z" id="Shape" fill="#EDEDED"></path>
            <path d="M87.9222482,197.100788 L78.8171387,211.519971 C78.6214089,211.753024 78.5832349,212.080235 78.7200601,212.352085 C78.8568854,212.623935 79.1424319,212.788214 79.446219,212.769854 L91.2745839,211.90073 L87.9222482,197.100788 Z" id="Shape" fill="#F2F2F2"></path>
            <path d="M112.92819,197.100788 L122.033299,211.519971 C122.236219,211.749626 122.279773,212.079326 122.143447,212.353794 C122.007121,212.628263 121.718098,212.792777 121.412496,212.769854 L109.575854,211.90073 L112.92819,197.100788 Z" id="Shape" fill="#F2F2F2"></path>
            <path d="M100.437635,542.945956 C62.9163066,542.945956 32.4969635,548.152423 32.4969635,554.534277 C32.4969635,560.916131 62.9080292,566.172263 100.437635,566.172263 C137.967241,566.172263 168.378307,560.974073 168.378307,554.583942 C168.378307,548.19381 137.958964,542.945956 100.437635,542.945956 Z" id="Shape" fill="#F1F1F2"></path>
            <polygon id="Shape" fill="#5090CC" points="129.847139 545.76854 104.67565 545.76854 104.67565 539.800555 130.72454 539.800555"></polygon>
            <polygon id="Shape" fill="#5090CC" points="70.9950219 545.76854 96.1665109 545.76854 96.1665109 539.800555 70.1176204 539.800555"></polygon>
            <path d="M151.475912,338.023051 C151.475912,332.642759 151.202759,328.520628 150.648175,326.004307 C149.754219,322.022891 147.751095,319.539679 147.10546,315.947299 L53.8029197,315.947299 C53.1572847,319.539679 51.1541606,322.022891 50.2602044,326.004307 C49.6890657,328.487518 49.4324672,332.626204 49.4324672,338.023051 C49.540073,385.742102 70.1258978,539.800555 70.1258978,539.800555 L96.2492847,539.800555 C96.2492847,539.800555 98.2606861,430.679956 99.9078832,396.833781 C99.9078832,396.513779 100.167297,396.254365 100.487299,396.254365 C100.807302,396.254365 101.066715,396.513779 101.066715,396.833781 C102.72219,430.679956 104.725314,539.800555 104.725314,539.800555 L130.782482,539.800555 C130.782482,539.800555 151.376584,385.725547 151.475912,338.023051 Z" id="Shape" fill="#5090CC"></path>
            <path d="M129.540876,539.800555 L130.782482,539.800555 C130.782482,539.800555 146.848861,419.513781 150.648175,358.592321 C149.125139,357.905299 146.335664,356.54781 145.425153,356.059445 C142.312861,405.988555 135.748905,498.115708 129.540876,539.800555 Z M54.8707007,342.087241 C54.6803212,337.451912 54.5892701,333.271839 54.6223796,329.671182 C54.5916886,325.875035 54.8685059,322.082637 55.4501168,318.331182 C55.7398248,316.808146 56.1454161,317.652438 56.5841168,315.972131 L53.8029197,315.972131 C53.1572847,319.564511 51.1541606,322.047723 50.2602044,326.029139 C49.6890657,328.51235 49.4324672,332.651036 49.4324672,338.047883 C49.4324672,342.964642 49.6725109,349.023679 50.0781022,355.927007 C53.2814453,352.765051 55.0528029,346.366642 54.8707007,342.087241 Z M150.648175,326.004307 C149.754219,322.022891 147.751095,319.539679 147.10546,315.947299 L144.340818,315.947299 C144.779518,317.602774 145.168555,316.775036 145.474818,318.30635 C146.042577,322.058931 146.305552,325.851323 146.261168,329.64635 C146.261168,333.280117 146.203226,337.46019 146.012847,342.062409 C145.830745,346.34181 147.602102,352.740219 150.846832,355.877343 C151.252423,348.974015 151.475912,342.914978 151.492467,337.998219 C151.475912,332.642759 151.211036,328.520628 150.648175,326.004307 Z M50.1939854,358.592321 C54.009854,419.513781 70.0596788,539.800555 70.0596788,539.800555 L71.3261168,539.800555 C65.1180876,498.115708 58.545854,405.988555 55.4004526,356.042891 C54.5064964,356.54781 51.7170219,357.905299 50.1939854,358.592321 Z" id="Shape" fill="#71A0D4" fill-rule="nonzero"></path>
            <path d="M56.3771825,349.876248 L52.3709343,355.984949 C58.2658601,352.47155 63.1219012,347.455545 66.4424672,341.449883 C68.7104672,337.451912 70.4238832,331.169387 71.5247737,325.904978 C71.1357372,325.904978 70.7549781,326.302292 70.3990511,326.898263 C65.7885547,334.587942 61.302219,342.368672 56.3771825,349.876248 Z" id="Shape" fill="#4B84B9"></path>
            <path d="M129.317387,325.904978 C130.418277,331.169387 132.131693,337.451912 134.399693,341.449883 C137.72026,347.455545 142.5763,352.47155 148.471226,355.984949 L144.464978,349.876248 C139.539942,342.368672 135.053606,334.587942 130.393445,326.898263 C130.037518,326.302292 129.656759,325.904978 129.267723,325.904978 L129.317387,325.904978 Z" id="Shape" fill="#4B84B9"></path>
            <path d="M71.9138102,548.028263 L93.6584672,548.028263 L93.6584672,552.464934 C93.6584672,553.626087 92.7171669,554.567387 91.5560146,554.567387 L74.0162628,554.567387 C72.8551103,554.567387 71.9138102,553.626087 71.9138102,552.464934 L71.9138102,548.028263 Z" id="Shape" fill="#3F4577"></path>
            <path d="M107.109197,548.028263 L128.853854,548.028263 L128.853854,552.464934 C128.853854,553.626087 127.912554,554.567387 126.751401,554.567387 L109.21165,554.567387 C108.050497,554.567387 107.109197,553.626087 107.109197,552.464934 L107.109197,548.028263 Z" id="Shape" fill="#3F4577"></path>
            <path d="M74.0907591,548.028263 L91.4732409,548.028263 L91.4732409,552.688423 C91.4732409,553.726146 90.6319999,554.567387 89.5942774,554.567387 L75.9697226,554.567387 C74.9319997,554.567387 74.0907591,553.726146 74.0907591,552.688423 L74.0907591,548.028263 Z" id="Shape" fill="#3F4577"></path>
            <path d="M109.261314,548.028263 L126.643796,548.028263 L126.643796,552.688423 C126.643796,553.186755 126.445834,553.664677 126.09346,554.017051 C125.741086,554.369425 125.263164,554.567387 124.764832,554.567387 L111.156832,554.567387 C110.11911,554.567387 109.277869,553.726146 109.277869,552.688423 L109.277869,548.028263 L109.261314,548.028263 Z" id="Shape" fill="#3F4577"></path>
            <path d="M121.611153,539.535679 L114.327066,539.535679 C113.142827,539.527764 112.000153,539.971808 111.132,540.777285 C109.027366,542.791294 107.606153,545.413735 107.06781,548.276584 L128.862131,548.276584 C128.326597,545.414557 126.908261,542.792082 124.806219,540.777285 C123.937168,539.973244 122.795085,539.529429 121.611153,539.535679 Z" id="Shape" fill="#6868A4"></path>
            <path d="M100.57835,368.566555 C95.6671313,393.61241 93.3537671,419.098241 93.6750219,444.619051 L96.0754599,539.808832 L96.1996204,539.808832 C96.1996204,539.808832 98.2110219,430.688234 99.858219,396.842058 C99.858219,396.522056 100.117633,396.262642 100.437635,396.262642 C100.757637,396.262642 101.017051,396.522056 101.017051,396.842058 C102.672526,430.688234 104.67565,539.808832 104.67565,539.808832 L104.79981,539.808832 L107.283022,443.592657 C107.60872,418.75436 105.434618,393.94631 100.793562,369.543285 L100.61146,368.574832 L100.57835,368.566555 Z" id="Shape" fill="#4B84B9"></path>
            <path d="M86.4240438,539.535679 L79.1399562,539.535679 C77.9560248,539.529429 76.8139422,539.973244 75.9448905,540.777285 C73.8428486,542.792082 72.4245122,545.414557 71.8889781,548.276584 L93.6832993,548.276584 C93.1440732,545.415867 91.7263124,542.794456 89.6273869,540.777285 C88.7553508,539.972716 87.6105232,539.528985 86.4240438,539.535679 Z" id="Shape" fill="#6868A4"></path>
            <path d="M90.6703358,541.903007 C90.3508019,541.502664 90.0022086,541.126405 89.6273869,540.777285 C88.7553508,539.972716 87.6105232,539.528985 86.4240438,539.535679 L79.1399562,539.535679 C77.9560248,539.529429 76.8139422,539.973244 75.9448905,540.777285 C75.5673844,541.126274 75.2160298,541.502527 74.8936642,541.903007 L90.6703358,541.903007 Z" id="Shape" fill="#6868A4"></path>
            <path d="M125.857445,541.903007 C125.53508,541.502527 125.183725,541.126274 124.806219,540.777285 C123.937168,539.973244 122.795085,539.529429 121.611153,539.535679 L114.327066,539.535679 C113.142827,539.527764 112.000153,539.971808 111.132,540.777285 C110.754494,541.126274 110.403139,541.502527 110.080774,541.903007 L125.857445,541.903007 Z" id="Shape" fill="#6868A4"></path>
            <path d="M132.620058,337.716788 L132.83527,337.501577 L133.050482,337.278088 C132.83527,337.534686 132.760774,337.716788 132.620058,337.716788 Z" id="Shape" fill="#0F153C"></path>
            <path d="M151.475912,343.171577 C151.475912,342.575606 151.475912,341.987912 151.475912,341.425051 L151.475912,341.093956 C151.475912,340.506263 151.475912,339.935124 151.475912,339.38054 C151.475912,339.049445 151.475912,338.71835 151.475912,338.387255 C151.475912,338.056161 151.475912,337.650569 151.475912,337.286365 L49.4159124,337.286365 C49.4159124,337.650569 49.4159124,338.014774 49.4159124,338.387255 C49.4159124,338.759737 49.4159124,339.049445 49.4159124,339.38054 C49.4159124,339.935124 49.4159124,340.506263 49.4159124,341.093956 L49.4159124,341.425051 C49.4159124,341.987912 49.4159124,342.575606 49.4159124,343.171577 C49.4159124,343.270905 49.4159124,343.378511 49.4159124,343.477839 L49.4159124,344.603562 L151.401416,344.603562 L151.401416,343.477839 C151.475912,343.378511 151.475912,343.270905 151.475912,343.171577 Z" id="Shape" fill="#4B84B9"></path>
            <path d="M59.7295182,344.603562 L64.4724526,344.603562 C65.1732701,343.593723 65.8354599,342.542496 66.4590219,341.449883 C67.1968069,340.118974 67.8358823,338.735694 68.3710949,337.311197 L64.2324088,337.311197 C62.725927,339.736467 61.2525547,342.178292 59.7295182,344.603562 Z M136.659416,337.286365 L132.52073,337.286365 C133.049858,338.712043 133.68628,340.095567 134.424526,341.425051 C135.045328,342.517664 135.715796,343.568891 136.411095,344.57873 L141.162307,344.57873 C139.628234,342.167256 138.12727,339.736467 136.659416,337.286365 Z" id="Shape" fill="#2E4A6F" fill-rule="nonzero"></path>
            <rect id="Rectangle-path" fill="#FFC555" x="9.43620438" y="232.412058" width="181.986307" height="107.191971" rx="9.14"></rect>
            <path d="M13.7321606,296.992117 C20.1388467,296.222321 20.2464526,290.949635 19.4849343,284.576058 C18.7234161,278.202482 17.3742044,273.070511 10.9757956,273.815474 C10.4560006,273.872903 9.94132142,273.969751 9.43620438,274.105182 L9.43620438,296.718964 C10.8393121,297.072755 12.2955428,297.165347 13.7321606,296.992117 Z" id="Shape" fill="#D8A748"></path>
            <path d="M189.899474,273.79892 C183.501066,273.037401 182.151854,278.136263 181.390336,284.559504 C180.628818,290.982745 180.736423,296.238876 187.184496,296.975562 C188.61664,297.143044 190.067394,297.04483 191.463898,296.685854 L191.463898,274.08035 C190.94954,273.950561 190.426817,273.856527 189.899474,273.79892 Z" id="Shape" fill="#D8A748"></path>
            <path d="M10.9757956,270.430029 C17.3742044,269.668511 18.7234161,274.77565 19.4849343,281.190613 C20.2464526,287.605577 20.1388467,292.878263 13.7321606,293.606672 C7.48313783,294.096838 1.96146123,289.566708 1.2212078,283.342355 C0.480954365,277.118002 4.78611642,271.41918 10.9757956,270.430029 Z" id="Shape" fill="#F06564"></path>
            <path d="M9.43620438,271.49781 C9.41136142,271.29993 9.41136142,271.09972 9.43620438,270.901839 L9.43620438,266.200292 C7.48842565,266.700832 5.75842258,267.826061 4.51116788,269.403635 C1.15883212,273.591985 0.703576642,281.273387 0.703576642,281.273387 L9.43620438,272.764248 L9.43620438,271.49781 Z" id="Shape" fill="#F06564"></path>
            <path d="M189.899474,270.430029 C183.501066,269.668511 182.151854,274.77565 181.390336,281.190613 C180.628818,287.605577 180.736423,292.878263 187.184496,293.606672 C193.433519,294.096838 198.955195,289.566708 199.695449,283.342355 C200.435703,277.118002 196.13054,271.41918 189.940861,270.430029 L189.899474,270.430029 Z" id="Shape" fill="#F06564"></path>
            <path d="M191.439066,271.49781 C191.463909,271.29993 191.463909,271.09972 191.439066,270.901839 L191.439066,266.200292 C193.386845,266.700832 195.116848,267.826061 196.364102,269.403635 C199.675051,273.591985 200.171693,281.273387 200.171693,281.273387 L191.439066,272.780803 L191.439066,271.49781 Z" id="Shape" fill="#F06564"></path>
            <path d="M33.3329781,285.850774 L38.4815036,285.850774 C38.4089338,287.136877 38.8876081,288.393007 39.7976766,289.304655 C40.7077451,290.216304 41.963043,290.697156 43.2492701,290.626818 C44.3560738,290.692362 45.4417557,290.3038 46.2556247,289.550853 C47.0694937,288.797908 47.5411846,287.745675 47.561781,286.637124 C47.561781,284.600891 46.1297956,283.019912 43.580365,282.283226 L41.6765693,281.720365 C37.9683066,280.660861 36.1141752,279.543416 34.7235766,277.788613 C33.585955,276.291139 32.9540148,274.470687 32.9191095,272.590423 C32.9191095,268.377241 35.8824088,265.140788 40.6087883,264.313051 L40.6087883,259.263854 L45.1034015,259.263854 L45.1034015,264.503431 C46.1292304,264.604948 47.0686131,265.122506 47.7024964,265.935416 L47.7024964,264.222 L51.7335766,264.222 L51.7335766,272.565591 L46.916146,272.565591 C46.6347153,270.08238 45.1530657,268.766277 42.7774599,268.766277 C40.401854,268.766277 38.7463796,270.297591 38.7463796,272.383489 C38.7463796,274.469387 39.9962628,275.694438 43.0092263,276.464234 C47.3631241,277.573401 49.1758686,278.409416 50.8396204,280.031781 C52.5416912,281.646045 53.497844,283.894053 53.4801022,286.23981 C53.4801022,290.643372 50.2850365,293.937766 45.1365109,294.773781 L45.1365109,300.19546 L40.5011825,300.19546 L40.5011825,294.815168 L40.0376496,294.674453 C39.1273449,294.468147 38.3117962,293.964254 37.7199854,293.242467 L37.7199854,295.005547 L33.3329781,295.005547 L33.3329781,285.850774 Z" id="Shape" fill="#FFFFFF"></path>
            <path d="M81.581781,282.258394 L81.581781,286.753007 L76.979562,286.753007 L76.979562,290.063956 L80.5553869,290.063956 L80.5553869,294.980715 L67.6344088,294.980715 L67.6344088,290.063956 L71.2516204,290.063956 L71.2516204,286.753007 L57.0228175,286.753007 L57.0228175,282.258394 L70.3576642,264.114394 L76.979562,264.114394 L76.979562,282.258394 L81.581781,282.258394 Z M71.2516204,282.258394 L71.2516204,271.083942 L63.2722336,282.258394 L71.2516204,282.258394 Z" id="Shape" fill="#FFFFFF" fill-rule="nonzero"></path>
            <path d="M107.680336,282.258394 L107.680336,286.753007 L103.045007,286.753007 L103.045007,290.063956 L106.612555,290.063956 L106.612555,294.980715 L93.7329635,294.980715 L93.7329635,290.063956 L97.3418978,290.063956 L97.3418978,286.753007 L83.1130949,286.753007 L83.1130949,282.258394 L96.4148321,264.089562 L103.03673,264.089562 L103.03673,282.258394 L107.680336,282.258394 Z M97.3418978,282.258394 L97.3418978,271.083942 L89.3956204,282.258394 L97.3418978,282.258394 Z" id="Shape" fill="#FFFFFF" fill-rule="nonzero"></path>
            <polygon id="Shape" fill="#FFFFFF" points="116.214307 288.880292 116.214307 295.005547 110.742964 295.005547 110.742964 288.880292"></polygon>
            <path d="M142.627401,275.744102 L142.627401,283.392394 C142.627401,288.118774 141.427182,291.040686 138.554934,293.267299 C136.569456,294.81494 134.119266,295.646255 131.601942,295.62635 C127.834519,295.683419 124.299595,293.809785 122.231956,290.659927 C121.031737,288.764409 120.51854,286.628847 120.51854,283.384117 L120.51854,275.735825 C120.51854,271.050832 121.727036,268.137197 124.599285,265.86092 C126.60636,264.322688 129.073477,263.506148 131.601942,263.543255 C135.341581,263.485837 138.852298,265.339496 140.913985,268.460015 C142.163869,270.413474 142.627401,272.499372 142.627401,275.744102 Z M126.22165,275.793766 L126.22165,283.34273 C126.22165,286.173591 126.635518,287.655241 127.752964,288.814073 C128.777052,289.822527 130.164973,290.374711 131.601942,290.345387 C133.643836,290.411247 135.524833,289.242156 136.369708,287.382088 C136.866494,286.096658 137.072837,284.717265 136.973956,283.34273 L136.973956,275.793766 C136.973956,273.012569 136.560088,271.522642 135.442642,270.36381 C134.413727,269.362985 133.037299,268.799361 131.601942,268.791109 C129.529901,268.719014 127.621154,269.910753 126.776234,271.804073 C126.324435,273.083018 126.135797,274.440086 126.22165,275.793766 Z" id="Shape" fill="#FFFFFF" fill-rule="nonzero"></path>
            <path d="M146.203226,286.173591 L152.038774,286.173591 C152.643022,289.045839 154.406102,290.668204 156.905869,290.668204 C158.254442,290.659609 159.54334,290.111006 160.484419,289.145038 C161.425498,288.17907 161.94028,286.876295 161.913679,285.527956 C161.899765,284.134184 161.317709,282.806445 160.302117,281.851789 C159.286526,280.897133 157.925354,280.398239 156.533387,280.470482 C156.163024,280.466134 155.792711,280.482716 155.424219,280.520146 L155.01035,280.520146 L155.01035,276.025533 C155.564934,276.025533 155.796701,276.025533 156.210569,276.025533 C159.273197,276.025533 160.986613,274.634934 160.986613,272.085504 C161.023359,271.062541 160.636563,270.069714 159.917468,269.341219 C159.198373,268.612724 158.210652,268.213068 157.187299,268.236526 C155.01035,268.236526 153.619752,269.536073 153.338321,271.81235 L148.007693,271.81235 C148.23946,266.945255 152.088438,263.534978 157.27835,263.534978 C162.327547,263.534978 166.317241,267.011474 166.267577,271.555752 C166.329348,274.165288 164.939654,276.594064 162.658642,277.863109 C163.404045,278.118291 164.094799,278.511402 164.694876,279.021942 C166.749376,280.664786 167.943705,283.153986 167.939606,285.784555 C167.939606,291.214511 163.163562,295.609796 157.228686,295.609796 C151.020657,295.62635 146.567431,291.78565 146.203226,286.173591 Z" id="Shape" fill="#FFFFFF"></path>
            <path d="M45.4427737,11.5883212 L47.9259854,11.5883212 C46.7377952,14.5742068 43.8554744,16.5394256 40.6418978,16.5547445 C36.1710036,16.5684589 32.53551,12.9552008 32.5217956,8.48430657 C32.5080813,4.01341237 36.1213393,0.377918779 40.5922336,0.36420438 C41.9397939,0.350444981 43.2633941,0.720823344 44.4081022,1.4319854 C44.8540501,1.71660572 45.2604042,2.05894512 45.6165985,2.45010219 L45.6165985,0.678744526 L47.5535036,0.678744526 L47.5535036,5.09886131 L45.3682774,5.09886131 C44.3417096,3.51174701 42.5646701,2.57151439 40.6750073,2.61564964 C39.1533513,2.59970496 37.6900777,3.20056468 36.6187339,4.28126521 C35.5473901,5.36196574 34.959277,6.8304088 34.9884526,8.35186861 C34.9663387,9.87661728 35.5548849,11.3468939 36.6230051,12.435226 C37.6911253,13.5235581 39.150112,14.1395595 40.6750073,14.1460292 C42.5959232,14.1601919 44.3922085,13.1965597 45.4427737,11.5883212 Z" id="Shape" fill="#A6A8AB"></path>
            <path d="M61.1615036,10.3467153 C61.1816321,12.785799 59.7274126,14.9957774 57.4794191,15.9423817 C55.2314256,16.888986 52.6343674,16.3849541 50.9036666,14.6661727 C49.1729659,12.9473914 48.6509984,10.3538785 49.5820447,8.09939694 C50.5130909,5.84491538 52.7129668,4.37545787 55.1521314,4.37872993 C56.7414302,4.36992332 58.2687773,4.99453695 59.3964751,6.1144682 C60.5241729,7.23439947 61.1593268,8.75739364 61.1615036,10.3467153 Z M59.034219,10.3467153 C58.9751494,8.21205789 57.206422,6.52404171 55.0713339,6.56466615 C52.9362457,6.60529058 51.2330112,8.359368 51.2551874,10.4947274 C51.2773637,12.6300867 53.0166601,14.3484126 55.1521314,14.3446861 C56.1941709,14.3337778 57.1890625,13.9087651 57.9173459,13.1634003 C58.6456295,12.4180356 59.0474672,11.4135598 59.034219,10.3715474 L59.034219,10.3467153 Z" id="Shape" fill="#A6A8AB" fill-rule="nonzero"></path>
            <path d="M66.2934745,4.67671533 L66.2934745,6.5060146 C66.9570077,5.23292422 68.2764181,4.43744431 69.7120292,4.44494891 C71.3482602,4.42081588 72.8298037,5.40851149 73.4368467,6.92816058 C74.1077387,5.38990731 75.6411288,4.40906068 77.3189343,4.44494891 C78.8426015,4.4304657 80.2599333,5.22417153 81.0437518,6.53084672 C81.4717387,7.35678715 81.663636,8.28476801 81.5983358,9.21271533 L81.5983358,14.1791387 L83.2538102,14.1791387 L83.2538102,16.1243212 L77.8072993,16.1243212 L77.8072993,14.1625839 L79.4627737,14.1625839 L79.4627737,9.71763504 C79.4627737,7.6400146 78.5108759,6.5060146 76.7809051,6.5060146 C75.0509343,6.5060146 73.9334891,7.70623358 73.9334891,9.56036496 L73.9334891,14.1625839 L75.5889635,14.1625839 L75.5889635,16.1077664 L70.1590073,16.1077664 L70.1590073,14.1625839 L71.8144818,14.1625839 L71.8144818,9.79213139 C71.8144818,7.6400146 70.8874161,6.48118248 69.1491679,6.48118248 C67.4109197,6.48118248 66.3514161,7.75589781 66.3514161,9.67624818 L66.3514161,14.1377518 L68.0068905,14.1377518 L68.0068905,16.0829343 L62.7093723,16.0829343 L62.7093723,14.1625839 L64.3648467,14.1625839 L64.3648467,6.62189781 L62.7093723,6.62189781 L62.7093723,4.67671533 L66.2934745,4.67671533 Z" id="Shape" fill="#A6A8AB"></path>
            <path d="M88.2119562,4.67671533 L88.2119562,6.5060146 C88.8754894,5.23292422 90.1949001,4.43744431 91.6305109,4.44494891 C93.2674424,4.41843719 94.750212,5.40695031 95.3553285,6.92816058 C96.0273691,5.38707063 97.5649043,4.40566527 99.2456934,4.44494891 C100.766417,4.43340915 102.179917,5.22673196 102.962234,6.53084672 C103.39022,7.35678715 103.582118,8.28476801 103.516818,9.21271533 L103.516818,14.1791387 L105.172292,14.1791387 L105.172292,16.1243212 L99.7175036,16.1243212 L99.7175036,14.1625839 L101.372978,14.1625839 L101.372978,9.71763504 C101.372978,7.6400146 100.42108,6.5060146 98.6911095,6.5060146 C96.9611387,6.5060146 95.8436934,7.70623358 95.8436934,9.56036496 L95.8436934,14.1625839 L97.4991679,14.1625839 L97.4991679,16.1077664 L92.0692117,16.1077664 L92.0692117,14.1625839 L93.7246861,14.1625839 L93.7246861,9.79213139 C93.7246861,7.6400146 92.7976204,6.48118248 91.0593723,6.48118248 C89.3211241,6.48118248 88.2616204,7.75589781 88.2616204,9.67624818 L88.2616204,14.1377518 L89.9170949,14.1377518 L89.9170949,16.0829343 L84.4871387,16.0829343 L84.4871387,14.1625839 L86.1426131,14.1625839 L86.1426131,6.62189781 L84.4871387,6.62189781 L84.4871387,4.67671533 L88.2119562,4.67671533 Z" id="Shape" fill="#A6A8AB"></path>
            <path d="M115.560394,12.7968175 L117.737343,12.7968175 C116.818798,14.9868563 114.673973,16.4102107 112.299109,16.4057518 C109.853204,16.4629619 107.616135,15.0336372 106.640219,12.7901322 C105.664303,10.5466273 106.143832,7.93559289 107.853236,6.18525992 C109.562639,4.43492695 112.161599,3.89376249 114.427563,4.81633036 C116.693528,5.73889823 118.175375,7.94152792 118.176044,10.3881022 C118.176044,10.5784818 118.176044,10.8102482 118.134657,11.1578978 L108.350803,11.1578978 C108.610911,13.1226333 110.3009,14.58136 112.282555,14.5516204 C113.610662,14.596245 114.861121,13.9268071 115.560394,12.7968175 Z M116.255693,9.53553285 C115.891541,7.60447831 114.19793,6.21055969 112.232891,6.22458394 C110.303102,6.24316086 108.660819,7.63492661 108.325971,9.53553285 L116.255693,9.53553285 Z" id="Shape" fill="#A6A8AB" fill-rule="nonzero"></path>
            <path d="M123.332847,4.67671533 L123.332847,6.78744526 C124.119197,5.2809635 125.046263,4.70154745 126.892117,4.56083212 L126.892117,6.68811679 C124.698613,6.85366423 123.473562,8.10354745 123.473562,10.2308321 L123.473562,14.1625839 L125.129036,14.1625839 L125.129036,16.1077664 L119.69908,16.1077664 L119.69908,14.1625839 L121.354555,14.1625839 L121.354555,6.62189781 L119.69908,6.62189781 L119.69908,4.67671533 L123.332847,4.67671533 Z" id="Shape" fill="#A6A8AB"></path>
            <path d="M138.637708,4.67671533 L138.637708,8.27737226 L136.717358,8.27737226 C135.684121,6.7110333 133.686452,6.09555405 131.950871,6.80882386 C130.21529,7.52209366 129.227702,9.36442036 129.594464,11.20466 C129.961225,13.0448997 131.579653,14.3678456 133.456073,14.3612409 C134.852575,14.4009425 136.144876,13.6255626 136.767022,12.3746715 L139.059854,12.3746715 C138.235954,14.7877734 135.964547,16.4064004 133.414686,16.3974745 C130.098238,16.3838388 127.414384,13.696289 127.405314,10.3798248 C127.377004,7.13268478 129.953461,4.46053091 133.199474,4.37045255 C134.577408,4.3533974 135.894632,4.93648032 136.808409,5.9679854 L136.808409,4.67671533 L138.637708,4.67671533 Z" id="Shape" fill="#A6A8AB"></path>
            <path d="M144.026277,4.67671533 L144.026277,14.1625839 L145.681752,14.1625839 L145.681752,16.1077664 L140.251796,16.1077664 L140.251796,14.1625839 L141.90727,14.1625839 L141.90727,6.62189781 L140.251796,6.62189781 L140.251796,4.67671533 L144.026277,4.67671533 Z M144.026277,0.678744526 L144.026277,3.21989781 L141.94038,3.21989781 L141.94038,0.678744526 L144.026277,0.678744526 Z" id="Shape" fill="#A6A8AB" fill-rule="nonzero"></path>
            <path d="M159.165591,6.62189781 L159.165591,14.1625839 L160.821066,14.1625839 L160.821066,16.1077664 L157.054861,16.1077664 L157.054861,14.1874161 C156.805235,14.5737464 156.501384,14.9221984 156.152628,15.2220876 C155.243598,15.9597483 154.103209,16.3525816 152.93273,16.3312555 C149.716702,16.2770451 147.138112,13.6542516 147.138569,10.4377664 C147.129234,7.15959633 149.762407,4.48579939 153.040336,4.44494891 C154.203697,4.41286948 155.335171,4.82754572 156.202292,5.60378102 C156.544615,5.89912506 156.84287,6.24197877 157.087971,6.62189781 L157.087971,4.67671533 L160.854175,4.67671533 L160.854175,6.62189781 L159.165591,6.62189781 Z M157.129358,10.3467153 C157.129238,8.18068276 155.377276,6.42272527 153.211257,6.41520503 C151.045237,6.4076848 149.281111,8.15343473 149.26595,10.3194142 C149.25079,12.4853937 150.990306,14.2556668 153.156219,14.2784672 C155.336312,14.2830945 157.111157,12.5267378 157.129358,10.3467153 Z" id="Shape" fill="#A6A8AB" fill-rule="nonzero"></path>
            <polygon id="Shape" fill="#A6A8AB" points="166.449679 0.678744526 166.449679 14.1625839 168.105153 14.1625839 168.105153 16.1077664 162.551036 16.1077664 162.551036 14.1625839 164.355504 14.1625839 164.355504 2.62392701 162.700029 2.62392701 162.700029 0.678744526"></polygon>
            <path d="M55.9550365,316.650876 C55.95147,315.980132 56.08381,315.315617 56.344073,314.697416 C56.8514487,313.484069 57.8320604,312.530364 59.0590511,312.056934 C60.4119331,311.549629 61.9027968,311.549629 63.2556788,312.056934 C63.8725753,312.296292 64.4354205,312.656512 64.9111533,313.116438 C66.3473904,314.556009 66.7723939,316.720257 65.9872117,318.596058 C65.7364167,319.188923 65.3706956,319.726252 64.9111533,320.177036 C64.4346819,320.633992 63.8718876,320.991366 63.2556788,321.228263 C61.9027968,321.735568 60.4119331,321.735568 59.0590511,321.228263 C58.4428424,320.991366 57.880048,320.633992 57.4035766,320.177036 C56.9465004,319.725926 56.5835544,319.18854 56.3357956,318.596058 C56.0794639,317.979835 55.9499656,317.318267 55.9550365,316.650876 Z M58.5127445,316.650876 C58.5223671,317.010275 58.6099171,317.363299 58.7693431,317.685547 C58.9028757,317.996644 59.0970321,318.27803 59.3404818,318.513285 C59.577604,318.746219 59.8590781,318.929177 60.168219,319.051314 C60.4909903,319.184623 60.8371253,319.252162 61.1863358,319.249971 C61.8778624,319.248245 62.5431577,318.985083 63.0487445,318.513285 C63.2965678,318.279996 63.4937883,317.998252 63.6281606,317.685547 C64.0673254,316.697191 63.8350833,315.539298 63.0487445,314.796745 C62.8090741,314.564917 62.5283928,314.379667 62.2210073,314.250438 C61.8974704,314.120597 61.5514844,314.0559 61.2028905,314.060058 C60.8542398,314.055241 60.5081255,314.119962 60.1847737,314.250438 C59.8749336,314.375029 59.5934073,314.560836 59.3570365,314.796745 C59.1147471,315.032981 58.92076,315.314121 58.7858978,315.624482 C58.6218878,315.942909 58.5287055,316.293048 58.5127445,316.650876 Z" id="Shape" fill="#1D1F3C" fill-rule="nonzero"></path>
            <polygon id="Shape" fill="#1D1F3C" points="67.9241168 321.360701 67.9241168 311.949328 70.4073285 311.949328 74.9267737 317.702102 74.9267737 311.949328 77.3603212 311.949328 77.3603212 321.360701 74.9267737 321.360701 70.3576642 315.607927 70.3576642 321.360701"></polygon>
            <path d="M89.296292,319.721781 L85.8032409,319.721781 L85.2403796,321.377255 L82.6330073,321.377255 L86.2171095,311.965883 L88.8824234,311.965883 L92.4665255,321.377255 L89.8591533,321.377255 L89.296292,319.721781 Z M88.6506569,317.851095 L87.5497664,314.713971 L86.4488759,317.851095 L88.6506569,317.851095 Z" id="Shape" fill="#1D1F3C" fill-rule="nonzero"></path>
            <polygon id="Shape" fill="#1D1F3C" points="94.4862044 311.949328 96.7624818 317.67727 99.0387591 311.949328 101.704073 311.949328 97.7309343 321.360701 95.7857518 321.360701 91.8291679 311.949328"></polygon>
            <polygon id="Shape" fill="#1D1F3C" points="108.036263 314.018672 105.122628 314.018672 105.122628 315.591372 107.870715 315.591372 107.870715 317.660715 105.122628 317.660715 105.122628 319.31619 108.027985 319.31619 108.027985 321.39381 102.680803 321.39381 102.680803 311.949328 108.027985 311.949328"></polygon>
            <path d="M117.62146,321.360701 L114.575387,321.360701 L112.241168,317.735212 L112.241168,321.360701 L109.799343,321.360701 L109.799343,311.949328 L113.606934,311.949328 C114.072839,311.938288 114.53652,312.016974 114.972701,312.181095 C115.340469,312.311767 115.672259,312.527289 115.941153,312.810175 C116.195313,313.073418 116.392547,313.386174 116.520569,313.728964 C116.647301,314.090721 116.711676,314.471373 116.710949,314.854686 C116.741653,315.476765 116.557537,316.090485 116.189474,316.592934 C115.805749,317.067349 115.265981,317.390035 114.666438,317.503445 L117.62146,321.360701 Z M112.241168,316.19562 L112.704701,316.19562 C113.097133,316.220976 113.486978,316.116241 113.813869,315.897635 C114.060117,315.679273 114.201063,315.365909 114.201063,315.036788 C114.201063,314.707668 114.060117,314.394304 113.813869,314.175942 C113.486978,313.957335 113.097133,313.852601 112.704701,313.877956 L112.241168,313.877956 L112.241168,316.19562 Z" id="Shape" fill="#1D1F3C" fill-rule="nonzero"></path>
            <path d="M124.408905,319.721781 L120.915854,319.721781 L120.352993,321.377255 L117.74562,321.377255 L121.329723,311.965883 L123.995036,311.965883 L127.579139,321.377255 L124.988321,321.377255 L124.408905,319.721781 Z M123.76327,317.86765 L122.66238,314.730526 L121.561489,317.851095 L123.76327,317.86765 Z" id="Shape" fill="#1D1F3C" fill-rule="nonzero"></path>
            <path d="M132.934599,316.088015 L137.785139,316.088015 C137.785139,316.592934 137.785139,317.039912 137.727197,317.453781 C137.6876,317.840728 137.601444,318.221482 137.470599,318.587781 C137.310529,319.058992 137.069648,319.49874 136.758745,319.887328 C136.465713,320.262747 136.110085,320.584773 135.707518,320.839226 C135.297304,321.097104 134.850939,321.292388 134.383139,321.418642 C133.886525,321.552155 133.374347,321.618961 132.860102,321.617299 C132.175802,321.627536 131.495865,321.506721 130.856978,321.261372 C130.275651,321.028992 129.746588,320.68285 129.300832,320.243255 C128.864659,319.794845 128.52394,319.262648 128.29927,318.678832 C128.051691,318.03169 127.928138,317.343726 127.935066,316.650876 C127.929588,315.96158 128.050214,315.277095 128.290993,314.631197 C128.512015,314.043586 128.856355,313.510143 129.300832,313.066774 C129.754067,312.626653 130.291917,312.283105 130.88181,312.056934 C131.539915,311.807362 132.239094,311.683813 132.942876,311.69273 C133.844691,311.675294 134.735261,311.895082 135.525416,312.330088 C136.297596,312.792401 136.909914,313.479815 137.280219,314.300102 L134.962555,315.260277 C134.804651,314.815626 134.516144,314.429027 134.134818,314.151109 C133.783999,313.927799 133.375227,313.812652 132.959431,313.820015 C132.615285,313.814661 132.273918,313.88237 131.957869,314.018672 C131.662876,314.158385 131.400593,314.358623 131.188073,314.606365 C130.970863,314.881751 130.802847,315.192582 130.691431,315.525153 C130.465722,316.278404 130.465722,317.081289 130.691431,317.83454 C130.786787,318.158799 130.947335,318.460178 131.163241,318.720219 C131.372753,318.969053 131.635947,319.167155 131.933036,319.299635 C132.272484,319.445793 132.639649,319.516401 133.009095,319.506569 C133.243438,319.508649 133.477089,319.480833 133.704394,319.423796 C133.921542,319.376939 134.127038,319.286859 134.308642,319.15892 C134.491461,319.041035 134.644459,318.882369 134.75562,318.695387 C134.878167,318.48126 134.956948,318.244917 134.987387,318.000088 L132.934599,318.000088 L132.934599,316.088015 Z" id="Shape" fill="#1D1F3C"></path>
            <polygon id="Shape" fill="#1D1F3C" points="144.688467 314.018672 141.774832 314.018672 141.774832 315.591372 144.52292 315.591372 144.52292 317.660715 141.774832 317.660715 141.774832 319.31619 144.688467 319.31619 144.688467 321.39381 139.333007 321.39381 139.333007 311.949328 144.688467 311.949328"></polygon>
        </g>
    </g>
</svg>